<svg width="25" height="18" viewBox="0 0 25 18" fill="none" xmlns="http://www.w3.org/2000/svg">
<path d="M2.14075 18H5.96917V8.74286L0.5 4.62857V16.3607C0.5 17.2607 1.23995 18 2.14075 18Z" fill="#4285F4"/>
<path d="M19.063 18H22.8914C23.7922 18 24.5322 17.2607 24.5322 16.3607V4.62857L19.063 8.71071" fill="#34A853"/>
<path d="M19.063 1.63928V8.74285L24.5322 4.66071V2.44285C24.5322 0.417853 22.2158 -0.73929 20.6072 0.482138" fill="#FBBC04"/>
<path d="M5.96924 8.74285V1.63928L12.5322 6.55714L19.0631 1.63928V8.74285L12.5001 13.6286" fill="#EA4335"/>
<path d="M0.5 2.44284V4.62856L5.96917 8.7107V1.63927L4.42493 0.48213C2.81635 -0.707156 0.5 0.449987 0.5 2.44284Z" fill="#C5221F"/>
</svg>
